<svg width="197" height="72" viewBox="0 0 197 72" xmlns="http://www.w3.org/2000/svg">
    <g fill="none" fill-rule="evenodd">
        <path fill="#BD2A33" d="M0 0h197v72H0z"/>
        <path d="m127.869 31.668 2.958 6.115 2.94-6.115h2.177v11.31h-2.21v-6.592l-2.162 4.286h-1.492l-2.179-4.286v6.592h-2.207v-11.31h2.175zm51.303 0 4.131 11.31H181l-.667-2.002h-4.022l-.683 2.002h-2.304l4.117-11.31h1.732zm-7.42 0v11.31h-2.207v-11.31h2.207zm-8.393 0c2.078 0 3.704 1.187 4.094 3.513h-2.202c-.221-.89-.783-1.577-1.874-1.577-.599 0-1.083.218-1.393.58-.424.468-.546.997-.546 3.139 0 2.14.122 2.67.546 3.139.31.357.794.577 1.393.577 1.091 0 1.653-.686 1.874-1.576h2.202c-.39 2.324-2.03 3.515-4.094 3.515-1.22 0-2.22-.438-3-1.22-1.126-1.125-1.095-2.515-1.095-4.435 0-1.922-.03-3.312 1.095-4.437.78-.78 1.78-1.218 3-1.218zm-9.692 0c2.304 0 3.672 1.572 3.672 3.462 0 1.59-.97 2.572-2.067 2.97l2.528 4.878h-2.562l-2.207-4.512h-1.589v4.512h-2.21v-11.31zm-12.965 0v7.293c0 1.29.758 2.062 1.94 2.062s1.954-.773 1.954-2.062v-7.293h2.176v7.37c0 2.378-1.83 3.94-4.13 3.94-2.303 0-4.132-1.562-4.132-3.94v-7.37h2.192zm37.658 3.334-1.43 4.113h2.814l-1.384-4.113zm-24.835-1.364h-2.083v2.984h2.083c.968 0 1.606-.619 1.606-1.492 0-.874-.638-1.492-1.606-1.492zM64.323 14.799v7.357c0 1.686 1.064 2.797 2.69 2.797 1.625 0 2.702-1.11 2.702-2.797v-7.357h1.188v7.451c0 2.218-1.64 3.762-3.89 3.762-2.252 0-3.877-1.544-3.877-3.762V14.8h1.187zm56.554-.095c1.423 0 2.36.36 3.313 1.22l-.766.765c-.687-.625-1.422-.953-2.593-.953-1.487 0-2.346.828-2.346 2.061 0 .548.155.985.5 1.282.345.297.924.515 1.501.608l1.22.187c1.046.157 1.563.376 2.031.782.61.517.937 1.28.937 2.203 0 1.953-1.532 3.153-3.843 3.153-1.672 0-2.77-.42-3.815-1.467l.813-.81c.923.92 1.78 1.218 3.033 1.218 1.624 0 2.627-.767 2.627-2.061 0-.58-.175-1.08-.534-1.393-.36-.312-.642-.406-1.454-.529l-1.296-.204c-.875-.14-1.565-.421-2.049-.843-.563-.5-.843-1.187-.843-2.078 0-1.89 1.358-3.141 3.564-3.141zm62.426.095v1.062h-5.72v3.921h4.876v1.063h-4.875v4.014h5.72v1.061h-6.91V14.8h6.91zm-13.613 0c1.159 0 2.142.36 2.814 1.03 1.157 1.157 1.095 2.86 1.095 4.405v.684c-.008 1.404-.104 2.981-1.095 3.972-.672.67-1.655 1.03-2.814 1.03h-3.814V14.8zm-14.403 0c1.157 0 2.143.36 2.812 1.03.985.984 1.086 2.361 1.094 3.701v1.388c-.006 1.404-.1 2.981-1.094 3.972-.669.67-1.655 1.03-2.812 1.03h-3.813V14.8zm-9.688 0 4.078 11.121h-1.265l-.892-2.513h-4.862l-.89 2.513h-1.265l4.094-11.12h1.002zm-10.22 0c1.156 0 2.14.36 2.813 1.03 1.156 1.157 1.092 2.86 1.092 4.405v.684c-.007 1.404-.101 2.981-1.092 3.972-.672.67-1.657 1.03-2.814 1.03h-3.814V14.8zm-7.032 0V25.92h-1.19V14.8h1.19zm-16.36 0c1.938 0 3.299 1.171 3.299 3.092 0 1.626-.985 2.686-2.424 2.985l2.64 5.044h-1.39l-2.533-4.937h-2.67v4.937h-1.19V14.8zm-6.736 0v1.062h-5.718v3.921h4.875v1.063h-4.875v4.014h5.718v1.061h-6.906V14.8h6.906zm-15.675 0 2.894 8.996 2.89-8.996h1.25L92.952 25.92h-.967L88.327 14.8h1.25zm-2.982 0V25.92h-1.188V14.8h1.188zm-11.503 0 5.906 8.888v-8.888h1.188V25.92h-1.123l-5.908-8.918v8.918h-1.189V14.8h1.126zm94.397 1.062h-2.422v8.998h2.422c.862 0 1.61-.22 2.19-.813.675-.703.73-2.074.734-3.321v-.971c-.004-1.201-.06-2.379-.734-3.08-.58-.596-1.328-.813-2.19-.813zm-14.404 0h-2.424v8.998h2.424c.86 0 1.61-.22 2.188-.813.676-.703.732-2.074.735-3.321v-.971c-.003-1.201-.06-2.379-.735-3.08-.577-.596-1.328-.813-2.188-.813zm-19.91 0h-2.42v8.998h2.42c.862 0 1.613-.22 2.19-.813.675-.703.73-2.074.734-3.321v-.971c-.004-1.201-.06-2.379-.734-3.08-.577-.596-1.328-.813-2.19-.813zm9.94.64-2.094 5.874h4.157l-2.063-5.873zm-33.236-.64h-2.97v4.077h2.97c1.297 0 2.218-.672 2.218-2.03 0-1.36-.921-2.047-2.218-2.047z" fill="#FFF"/>
    </g>
</svg>
